# xmcd
#
# Track frame offsets: 
#        150
#        27916
#        59687
#        80044
#        109017
#        133291
#        171388
#
# Disc length: 2544 seconds
#
# Revision: 1
# Processed by: cddbd v1.5.2PL0 Copyright (c) Steve Scherf et al.
# Submitted via: ExactAudioCopy v1.2
#
DISCID=6509ee07
DTITLE=Kai Strauss and The Electric All Stars - Live in Concert [CD1]
DYEAR=2019
DGENRE=Blues
TTITLE0=Gotta Let You Go
TTITLE1=Highway Blues
TTITLE2=Ain't Gonna Ramble No More
TTITLE3=Judgement Day
TTITLE4=Did You Wrong
TTITLE5=Hard Life
TTITLE6=Get The Ball Rolling
EXTD=
EXTT0=
EXTT1=
EXTT2=
EXTT3=
EXTT4=
EXTT5=
EXTT6=
PLAYORDER=
